<svg width="1088" height="447" viewBox="0 0 1088 447" fill="none" xmlns="http://www.w3.org/2000/svg">
<path d="M43.4323 255.747C43.0334 255.614 43.7415 251.711 43.5919 244.593C43.4994 237.506 42.1948 227.164 38.3562 215.266C36.4683 209.31 33.9609 203.02 30.9412 196.43C27.9423 189.829 24.455 182.938 20.8431 175.548C17.2464 168.134 13.5068 160.273 10.3371 151.411C8.78318 146.96 7.42487 142.185 6.7035 137.059C6.34584 134.499 6.15478 131.859 6.19854 129.195C6.23607 126.522 6.5554 123.778 7.1586 121.197C8.36614 116.033 10.6314 111.298 13.9753 108.023C15.6404 106.396 17.5807 105.181 19.6428 104.568C21.6759 103.966 23.7513 103.855 25.8249 104.239C27.885 104.639 30.0069 105.513 31.8772 107.413C32.3255 107.933 32.8042 108.372 33.1795 109.027L33.758 109.954C33.9395 110.272 34.0746 110.644 34.2293 110.992C34.3708 111.348 34.5369 111.695 34.6449 112.064L34.9243 113.194C35.1395 113.952 35.1685 114.698 35.2324 115.449C35.3236 116.215 35.2415 116.9 35.2075 117.609C35.1792 117.956 35.1755 118.324 35.1201 118.65L34.943 119.618C34.8172 120.256 34.7169 120.924 34.5193 121.481L33.9408 123.351C33.8944 123.598 33.737 123.812 33.6305 123.98L33.3424 124.434L32.867 125.171C32.5081 125.634 32.142 126.094 31.7494 126.521C30.9188 127.325 30.0062 128.074 28.9542 128.456C26.8682 129.357 24.6468 128.921 22.8477 128.075C21.018 127.211 19.4718 125.932 18.0935 124.551C15.3512 121.754 13.2171 118.517 11.3665 115.239C9.54604 111.932 8.0345 108.541 6.85605 105.09C6.26025 103.371 5.75857 101.627 5.36295 99.8618C4.94752 98.0696 4.73757 96.3377 4.50983 94.6736C3.75076 87.9429 4.00819 81.8566 4.62155 76.7024C5.23686 71.5359 6.14925 67.2366 7.02222 63.8074C8.80808 56.9618 10.2595 53.4712 10.531 53.6168C10.8615 53.7879 9.98388 57.5995 8.7668 64.5296C8.17595 67.9958 7.54732 72.2653 7.19898 77.2552C6.85006 82.235 6.84926 87.9733 7.74526 94.1185C8.00705 95.6528 8.24688 97.2171 8.64105 98.6944C9.02693 100.204 9.51348 101.739 10.0932 103.269C11.2363 106.335 12.7002 109.402 14.418 112.345C16.1525 115.259 18.1537 118.103 20.4626 120.344C22.7335 122.562 25.4916 124.075 27.4988 123.121C28.0187 122.941 28.4825 122.51 28.9517 122.062C29.1761 121.801 29.3938 121.513 29.6156 121.23C29.8009 120.913 30.0961 120.461 30.0436 120.525L30.189 120.016L30.379 119.374C30.5353 118.944 30.5698 118.52 30.6527 118.095L30.7703 117.461C30.8065 117.251 30.7901 117.054 30.8061 116.851C30.8157 116.452 30.8849 116.03 30.8112 115.675C30.7069 114.169 30.1963 112.995 29.2285 112.006C28.2654 111.02 26.8555 110.377 25.3813 110.123C23.9028 109.862 22.3321 109.96 20.8652 110.412C19.4253 110.855 18.06 111.712 16.8414 112.914C14.3987 115.315 12.5687 119.042 11.6086 123.188C11.1244 125.275 10.8719 127.393 10.8363 129.591C10.7961 131.8 10.9472 134.027 11.2491 136.236C11.8538 140.661 13.0445 144.993 14.4696 149.162C17.3876 157.509 20.9835 165.335 24.4447 172.736C27.9271 180.143 31.3345 187.207 34.2562 194.062C37.1959 200.894 39.6418 207.558 41.4067 213.85C45.0114 226.428 45.8737 237.421 45.3989 244.75C45.3688 245.672 45.2886 246.534 45.2009 247.34C45.1133 248.147 45.0545 248.903 44.9499 249.595C44.7212 250.975 44.5571 252.142 44.3366 253.058C43.8941 254.888 43.5876 255.805 43.4323 255.747Z" fill="#0A5656"/>
<path d="M891.634 106.608C891.411 107.077 887.879 105.3 881.087 103.864C874.338 102.362 864.205 101.636 851.977 103.725C845.864 104.729 839.284 106.433 832.293 108.708C825.297 110.956 817.907 113.748 810.013 116.582C802.099 119.392 793.727 122.279 784.544 124.224C779.941 125.154 775.078 125.764 770.037 125.498C767.52 125.361 764.968 124.998 762.451 124.335C759.923 123.679 757.397 122.653 755.094 121.309C750.487 118.62 746.545 114.704 744.252 109.772C743.114 107.317 742.434 104.611 742.355 101.891C742.279 99.2088 742.68 96.586 743.55 94.0786C744.432 91.5915 745.778 89.1352 748.038 87.2279C748.64 86.7854 749.174 86.2865 749.886 85.9662L750.908 85.4537C751.254 85.2991 751.64 85.2149 752.007 85.1007C752.38 85.0049 752.75 84.876 753.126 84.8252L754.267 84.7331C755.039 84.6368 755.754 84.7709 756.482 84.8622C757.231 84.9227 757.861 85.1817 758.526 85.386C758.849 85.5007 759.197 85.5892 759.493 85.733L760.368 86.1754C760.943 86.4784 761.553 86.7564 762.033 87.1308L763.667 88.2814C763.89 88.3959 764.054 88.6416 764.189 88.8133L764.549 89.2774L765.133 90.0406C765.485 90.5955 765.832 91.1585 766.141 91.7472C766.702 92.9702 767.19 94.2833 767.296 95.687C767.643 98.5034 766.688 101.184 765.446 103.243C764.18 105.336 762.59 106.979 760.942 108.389C757.62 111.183 754.027 113.115 750.465 114.683C746.882 116.207 743.296 117.325 739.734 118.013C737.957 118.367 736.179 118.597 734.407 118.689C732.605 118.8 730.91 118.668 729.275 118.573C722.702 117.987 716.989 116.277 712.247 114.333C707.493 112.384 703.635 110.261 700.594 108.387C694.532 104.59 691.573 101.977 691.777 101.67C692.02 101.296 695.424 103.264 701.704 106.368C704.85 107.898 708.749 109.659 713.4 111.233C718.041 112.806 723.487 114.116 729.537 114.397C731.057 114.419 732.6 114.476 734.099 114.32C735.625 114.181 737.201 113.923 738.794 113.546C741.982 112.815 745.25 111.682 748.463 110.204C751.65 108.698 754.838 106.842 757.527 104.464C760.186 102.128 762.294 99.0211 761.878 96.2914C761.834 95.5995 761.538 94.9209 761.227 94.2313C761.034 93.8909 760.814 93.5529 760.6 93.2107C760.344 92.9065 759.987 92.4339 760.035 92.5142L759.587 92.2162L759.024 91.8319C758.655 91.5382 758.26 91.3982 757.877 91.1976L757.304 90.9056C757.113 90.8123 756.923 90.7881 756.734 90.7217C756.357 90.6186 755.974 90.4356 755.619 90.4469C754.164 90.234 752.926 90.6052 751.751 91.5909C750.581 92.5711 749.626 94.189 749.026 95.9761C748.418 97.7671 748.128 99.755 748.199 101.694C748.269 103.597 748.75 105.502 749.593 107.301C751.277 110.906 754.367 114.046 758.068 116.194C759.93 117.276 761.88 118.075 763.957 118.622C766.043 119.176 768.194 119.495 770.364 119.621C774.711 119.873 779.113 119.372 783.417 118.539C792.05 116.792 800.354 114.077 808.222 111.433C816.101 108.765 823.636 106.112 830.854 104.019C838.054 101.899 844.975 100.358 851.377 99.5845C864.194 97.9428 874.836 99.3715 881.676 101.638C882.544 101.886 883.342 102.183 884.086 102.477C884.831 102.77 885.534 103.016 886.165 103.305C887.419 103.906 888.487 104.378 889.302 104.863C890.931 105.834 891.727 106.427 891.634 106.608Z" fill="#0A5656"/>
<path d="M1040.31 391.878C1039.86 391.733 1041.03 388.373 1041.51 382.145C1042.05 375.947 1041.51 366.821 1038.2 356.16C1036.58 350.825 1034.29 345.155 1031.43 339.187C1028.6 333.211 1025.24 326.948 1021.78 320.24C1018.34 313.512 1014.78 306.384 1011.96 298.421C1010.59 294.424 1009.47 290.158 1009.11 285.63C1008.94 283.369 1008.96 281.049 1009.26 278.725C1009.54 276.392 1010.16 274.018 1011.09 271.805C1012.94 267.378 1015.97 263.4 1020.1 260.773C1022.16 259.468 1024.49 258.542 1026.91 258.151C1029.29 257.767 1031.68 257.815 1034.02 258.296C1036.34 258.789 1038.69 259.7 1040.66 261.491C1041.13 261.976 1041.63 262.394 1042 262.991L1042.58 263.842C1042.76 264.133 1042.88 264.467 1043.03 264.781C1043.16 265.103 1043.31 265.417 1043.4 265.747L1043.62 266.754C1043.8 267.431 1043.76 268.085 1043.77 268.745C1043.8 269.421 1043.64 270.013 1043.54 270.631C1043.48 270.932 1043.44 271.253 1043.34 271.534L1043.05 272.367C1042.85 272.915 1042.67 273.492 1042.4 273.965L1041.56 275.558C1041.49 275.771 1041.29 275.946 1041.15 276.086L1040.78 276.462L1040.17 277.073C1039.71 277.453 1039.25 277.829 1038.76 278.174C1037.74 278.818 1036.62 279.409 1035.38 279.669C1032.91 280.311 1030.41 279.774 1028.43 278.91C1026.41 278.027 1024.76 276.802 1023.3 275.499C1020.42 272.864 1018.27 269.887 1016.45 266.895C1014.67 263.878 1013.25 260.81 1012.22 257.714C1011.69 256.17 1011.28 254.612 1010.99 253.042C1010.67 251.447 1010.59 249.92 1010.48 248.45C1010.23 242.517 1011.08 237.219 1012.26 232.759C1013.44 228.289 1014.88 224.597 1016.19 221.662C1018.86 215.807 1020.84 212.859 1021.14 213.005C1021.5 213.178 1020.15 216.446 1018.12 222.415C1017.13 225.402 1016.02 229.087 1015.16 233.422C1014.3 237.748 1013.78 242.76 1014.24 248.191C1014.4 249.55 1014.53 250.933 1014.85 252.251C1015.15 253.597 1015.57 254.972 1016.09 256.349C1017.12 259.107 1018.52 261.888 1020.21 264.58C1021.93 267.246 1023.96 269.871 1026.4 271.989C1028.8 274.086 1031.82 275.6 1034.21 274.907C1034.82 274.786 1035.39 274.442 1035.97 274.083C1036.25 273.871 1036.52 273.635 1036.8 273.403C1037.05 273.139 1037.42 272.765 1037.36 272.817L1037.57 272.383L1037.85 271.835C1038.07 271.471 1038.15 271.102 1038.28 270.737L1038.47 270.191C1038.53 270.01 1038.53 269.837 1038.57 269.661C1038.62 269.312 1038.73 268.949 1038.68 268.634C1038.7 267.311 1038.22 266.25 1037.21 265.319C1036.19 264.39 1034.64 263.729 1032.97 263.404C1031.3 263.073 1029.5 263.049 1027.77 263.341C1026.08 263.628 1024.44 264.281 1022.94 265.246C1019.92 267.173 1017.48 270.3 1016 273.855C1015.26 275.644 1014.77 277.477 1014.53 279.395C1014.28 281.321 1014.25 283.278 1014.4 285.228C1014.68 289.136 1015.65 293.004 1016.9 296.745C1019.48 304.241 1022.88 311.329 1026.16 318.035C1029.47 324.749 1032.73 331.158 1035.45 337.351C1038.19 343.524 1040.38 349.516 1041.82 355.136C1044.8 366.376 1044.78 376.038 1043.57 382.408C1043.45 383.211 1043.28 383.958 1043.1 384.657C1042.93 385.356 1042.79 386.012 1042.61 386.609C1042.22 387.798 1041.92 388.806 1041.59 389.591C1040.91 391.159 1040.48 391.938 1040.31 391.878Z" fill="#0A5656"/>
<path d="M780.501 195.106L786.71 209.039C785.273 212.616 776.866 232.212 764.824 233.755L755.831 229.13C769.421 221.85 777.537 203.152 780.501 195.106ZM828.223 203.722L824.613 214.136C821.458 215.304 805.937 220.052 789.59 208.004L784.109 195.706C802.326 208.078 821.162 205.388 828.223 203.722ZM797.167 225.005L791.903 213.193C805.478 221.226 817.802 219.323 823.358 217.757L819.463 229C817.186 230.006 807.358 233.528 797.167 225.005ZM814.836 242.349C813.29 242.851 808.606 243.782 803.483 239.177L799.558 230.372C804.78 233.337 809.656 233.839 813.138 233.602C815.131 233.466 816.831 233.095 818.181 232.698L814.836 242.349ZM805.823 244.427C808.918 245.901 811.691 245.992 813.668 245.722L810.488 254.894L805.823 244.427ZM802.232 243.868L807.507 255.702L796.593 250.091C799.36 248.202 801.151 245.804 802.232 243.868ZM795.869 229.59L800.592 240.188C800.058 241.642 798.096 246.043 793.408 248.452L782.329 242.756C789.34 239.954 793.758 233.467 795.869 229.59ZM794.261 225.98C793.114 228.509 787.869 238.851 778.4 240.735L768.868 235.834C778.763 232.045 785.624 219.059 788.41 212.853L794.261 225.98ZM832.198 192.251L829.423 200.256C825.234 201.497 802.265 207.164 781.557 189.975L776.306 178.193L773.517 179.436L778.682 191.024C777.385 194.986 768.455 220.581 752.411 227.371L744.451 223.278L743.054 225.994L811.533 261.206L835.083 193.251L832.198 192.251Z" fill="#0A5656"/>
<path d="M868.916 418C877.652 418 894.548 418 904.148 418L908.948 403.6C900.596 404.848 891.38 404.752 882.356 404.752L901.556 384.208L911.06 357.712L887.54 344.08C878.9 347.344 872.852 349.744 864.02 352.24L872.756 366.928C878.996 363.184 885.908 359.056 893.108 356.56L888.884 374.512L863.444 408.304L868.916 418ZM943.923 346L916.563 357.328C917.523 368.656 917.619 390.64 917.619 410.032C922.995 411.376 933.267 417.04 937.299 419.92L964.659 408.592C963.699 391.312 963.603 369.04 963.603 355.888C958.227 354.544 947.955 348.88 943.923 346ZM932.019 400.432C932.019 388.24 931.923 369.424 932.595 359.44C938.451 360.496 944.499 361.936 949.203 363.952C949.203 372.976 949.299 392.368 948.627 406.384C942.771 404.944 936.723 403.216 932.019 400.432ZM975.416 418C984.152 418 1001.05 418 1010.65 418L1015.45 403.6C1007.1 404.848 997.88 404.752 988.856 404.752L1008.06 384.208L1017.56 357.712L994.04 344.08C985.4 347.344 979.352 349.744 970.52 352.24L979.256 366.928C985.496 363.184 992.408 359.056 999.608 356.56L995.384 374.512L969.944 408.304L975.416 418ZM1042.84 418.096C1042.07 408.88 1041.88 380.464 1041.78 359.44L1042.84 346H1025.56L1023.06 359.536H1035.93L1027.38 365.104C1027.38 378.064 1028.05 412.528 1028.05 420.016L1042.84 418.096Z" fill="#F36024"/>
<path d="M121.456 329.515L170.343 335.866C168.09 283.995 168.633 239.071 169.336 180.899C153.258 176.672 122.65 159.309 110.659 150.523C110.659 150.523 91.1034 171.888 80.5969 183.282C84.4392 151.358 85.3215 126.023 86.7068 106.742L37.6807 111.91C39.9337 163.781 38.8368 254.494 35.0621 328.47L84.0185 329.062C82.7886 287.86 82.8185 237.745 83.6497 192.824C98.8569 197.616 113.762 203.557 125.76 211.766C125.203 257.843 124.962 277.713 121.456 329.515ZM269.029 152.15L192.303 185.209C194.772 219.225 194.42 248.311 193.717 306.483C209.795 310.709 232.378 324.808 253.258 336.869C253.258 336.869 279.549 306.369 285.975 298.958C296.983 317.524 312.356 332.399 319.493 337.67L355.975 298.076C346.201 296.518 336.184 291.212 326.747 285.626C326.51 233.779 327.229 221.979 327.706 182.526C311.628 178.299 281.019 160.936 269.029 152.15ZM237.262 278.207C237.708 241.346 237.955 220.899 240.33 191.262C258.434 194.649 269.606 199.681 284.216 206.194C283.899 232.4 283.614 256.014 281.405 295.734C265.615 291.511 250.127 286.139 237.262 278.207ZM444.235 154.269L367.509 187.327C369.978 221.344 369.626 250.43 368.923 308.601C388.148 314.594 419.103 327.065 444.015 339.176L478.192 299.554C458.357 296.434 427.051 289.143 412.468 280.326C412.914 243.464 413.161 223.018 415.536 193.38C433.605 199.647 445.069 204.394 460.505 214.086L485.168 175.213C467.415 166.646 456.225 163.054 444.235 154.269ZM627.168 341.678C625.996 319.486 626.505 277.441 628.251 252.117C618.512 247.679 607.632 242.363 598.76 237.647L622.482 229.005C622.695 211.439 622.834 199.919 623.106 177.457C601.306 169.993 593.871 165.583 578.147 155.888C578.147 155.888 552.467 183.515 544.292 192.633C548.436 159.561 549.326 133.65 550.728 112.929L501.702 118.097C503.955 169.968 502.453 246.563 501.395 334.109L545.167 334.638C545.481 308.72 545.798 282.514 546.108 256.884L546.687 256.603C563.317 262.852 575.925 268.189 584.804 272.329C584.63 286.728 583.892 323.874 583.746 335.969L627.168 341.678ZM547.411 196.703C561.203 199.462 567.237 200.687 579.578 204.293C579.494 211.204 579.508 210.052 579.393 219.556C579.359 222.435 559.296 238.034 546.198 249.396C546.417 231.254 546.925 213.115 547.415 196.415L547.411 196.703ZM690.044 370.953C690.178 312.198 691.444 255.185 693.931 192.427L709.482 192.615L722.213 163.966L695.143 163.639L667.98 147.181C685.606 142.498 715.032 138.534 728.3 136.966C727.727 136.671 700.173 104.944 692.786 96.5016C685.233 101.883 667.572 109.446 650.203 116.724C650.889 131.422 651.565 146.983 651.946 163.117L651.658 163.113L638.927 191.761L652.75 191.929C654.02 253.58 653.764 322.414 655.264 388.965L690.044 370.953ZM805.896 158.642L729.17 191.701C731.639 225.717 731.288 254.803 730.584 312.975C749.809 318.967 780.765 331.439 805.676 343.549L839.854 303.927C820.018 300.807 788.712 293.516 774.129 284.699C774.244 275.196 774.349 266.556 774.443 258.781L810.842 273.622C823.354 263.117 829.759 257.434 845.442 246.678L846.829 179.586C829.076 171.019 817.886 167.427 805.896 158.642ZM774.596 246.11C775.082 229.698 775.832 215.306 777.197 197.754C790.391 202.234 799.85 206.092 810.154 211.401L809.729 246.535L774.596 246.11ZM880.325 286.271C872.4 298.56 863.85 314.874 858.995 335.265C890.96 335.651 907.625 339.021 938.081 345.15C948.56 336.06 965.759 318.986 984.34 306.826C979.49 279.118 974.568 257.456 967.075 234.036L922.85 247.038L907.02 198.459C924.209 206.156 950.581 216.555 968.963 220.81L981.625 174.016C962.619 173.786 939.088 166.589 915.831 160.547C902.452 171.33 871.11 190.825 856.603 199.578C862.632 224.997 866.778 239.448 876.263 264.908L927.051 256.882L936.3 301.925L880.325 286.271ZM1053.99 139.176L1005.1 132.824C1005.54 144.063 1005.98 155.589 1006.12 167.399C1000.79 180.008 998.155 183.144 992.818 195.753L1006.64 195.92C1006.79 231.06 1006.3 271.665 1005.65 325.229C1022.84 332.926 1040.31 340.914 1047.74 346.476L1084.22 306.882C1074.15 305.896 1058.67 299.948 1049.23 294.362C1049.8 247.421 1050.12 220.639 1050.99 196.456L1073.16 196.724L1077.54 168.263L1052.2 167.957C1052.59 159.033 1053.28 149.824 1053.99 139.176Z" fill="#0A5656"/>
<path d="M193.5 306.002C193.9 296.402 195.5 222.502 192 185.002C203.333 185.835 228.9 188.102 240.5 190.502C238.1 200.902 237.167 252.835 237 277.502L231 281.502L193.5 306.002Z" fill="url(#paint0_linear)" style="mix-blend-mode:multiply"/>
<path d="M253 336.502C240.5 327.502 210.5 310.502 193.5 306.002C205.333 298.669 230.2 282.302 237 277.502C244.6 284.302 274 293.502 287.5 297.002L253 336.502Z" fill="url(#paint1_linear)" style="mix-blend-mode:multiply"/>
<path d="M84 328.502H35C36.2 320.102 37.5 275.002 38 253.502C52.8333 248.669 82.5 243.202 82.5 260.002C82.5 276.802 83.5 312.669 84 328.502Z" fill="url(#paint2_linear)" style="mix-blend-mode:multiply"/>
<path d="M502 118.004L551 113.004C549.8 121.404 547.5 169.004 544.5 191.504C529.667 196.337 503 203.802 503 187.002C503 170.202 502.5 133.837 502 118.004Z" fill="url(#paint3_linear)" style="mix-blend-mode:multiply"/>
<path d="M585 271.996L628.5 251.996C627.3 260.397 625.5 317.496 627 340.496C615 337.999 599.042 331.999 584 331.999C584 331.999 585.5 287.83 585 271.996Z" fill="url(#paint4_linear)" style="mix-blend-mode:multiply"/>
<path d="M729.5 192.002L776.5 204.002C775.3 212.402 773 270.502 774.5 293.502C762.5 291.005 746.542 285.002 731.5 285.002C731.5 285.002 730 207.835 729.5 192.002Z" fill="url(#paint5_linear)" style="mix-blend-mode:multiply"/>
<path d="M776.5 204.002L729.498 191.504C739.998 187.004 784.779 168.605 805.497 158.504C813 167.002 834 172.502 845.999 180.502C845.999 180.502 801.08 190.862 779.5 198.502C778.5 200.002 778 201.502 776.5 204.002Z" fill="url(#paint6_linear)" style="mix-blend-mode:multiply"/>
<path d="M690 370.502L655 388.502C656.2 380.102 654.5 321.502 654.5 294.502C666.5 296.999 675.958 266.502 691 266.502C691 266.502 689.5 354.669 690 370.502Z" fill="url(#paint7_linear)" style="mix-blend-mode:multiply"/>
<path d="M639 191.502L651.5 163.502H722L709.5 192.502L639 191.502Z" fill="url(#paint8_linear)" style="mix-blend-mode:multiply"/>
<path d="M584.975 272.517L628.475 252.017C619.977 248.524 600.985 238.002 580.485 229.002C575.485 230.502 550.995 246.564 548.999 257.002C548.999 257.002 572.063 266.466 584.975 272.517Z" fill="url(#paint9_linear)" style="mix-blend-mode:multiply"/>
<path d="M126 211.502L169.5 181.002L168.5 264.502L125 264.002L126 211.502Z" fill="url(#paint10_linear)" style="mix-blend-mode:multiply"/>
<path d="M414 325.502C405.6 321.102 380.5 312.335 369 308.502C372.5 306.335 386.1 297.802 412.5 281.002C432.1 290.202 452.333 295.169 460 296.502C448.167 308.002 422.4 329.902 414 325.502Z" fill="url(#paint11_linear)" style="mix-blend-mode:multiply"/>
<path d="M907.503 198.506L857 200.503L868.307 240.798L876.503 263.505L925.503 255.505L907.503 198.506Z" fill="url(#paint12_linear)" style="mix-blend-mode:multiply"/>
<path d="M79.0161 4.57422L35.4767 24.0164C37.1197 43.3216 37.1197 62.6269 37.1197 95.7607C48.2099 99.0467 65.8722 106.029 80.2484 112.738L102.155 92.6116C102.155 73.7171 102.155 61.6684 102.292 51.6735H67.3782L71.2119 72.4849L89.2849 63.7222L81.6176 72.8956V88.641C72.718 86.5873 63.8184 84.2597 58.8894 82.2059C58.8894 61.1208 59.8478 39.351 61.0801 22.3734C71.3488 25.9332 79.8376 30.4515 88.7372 35.7912L102.566 16.2121C92.2971 11.42 85.9989 9.50322 79.0161 4.57422ZM175.757 25.1117L141.528 4.57422C135.778 8.68172 120.991 16.7598 113.323 18.6766C113.323 60.2993 113.46 85.355 112.091 110L135.367 112.738C135.23 109.042 134.956 105.482 134.819 102.059C137.558 103.839 151.386 112.738 151.386 112.738C154.946 110.137 167.542 105.208 175.757 101.648C175.073 89.5994 175.073 35.6543 175.757 25.1117ZM133.998 30.7253C138.105 28.5346 145.362 24.0164 155.083 22.7841C155.083 32.779 155.22 85.6288 155.22 91.7901C151.112 93.7069 142.897 96.1714 134.682 98.9098C133.998 80.2891 133.998 62.2161 133.998 30.7253ZM196.3 82.3428C191.782 89.3256 187.948 96.7191 184.388 107.672C202.735 107.672 212.319 109.452 229.708 112.738C235.732 107.399 244.084 98.9098 254.627 91.7901C251.614 76.0447 249.424 63.3114 245.727 49.7567L216.838 57.2871L207.254 26.4809C217.112 30.7253 235.869 35.7912 246.412 38.1188L253.531 14.4322C242.578 14.4322 229.16 10.4616 215.742 7.17563C208.075 13.3369 192.193 24.564 183.978 29.63C187.674 44.1431 190.139 52.3581 195.753 66.8713L224.231 61.8054L229.845 90.4209L196.3 82.3428ZM307.121 4.57422L263.582 24.0164C265.225 43.3216 265.225 62.6269 265.225 95.7607C276.315 99.0467 293.977 106.029 308.354 112.738L326.153 92.6116C314.789 90.9686 296.031 86.0396 286.995 82.2059C286.995 61.1208 287.953 39.351 289.185 22.3734C299.454 25.9332 307.943 30.4515 316.842 35.7912L330.671 16.2121C320.402 11.42 314.104 9.50322 307.121 4.57422Z" fill="#F36024"/>
<path d="M58.9961 82.502L36.9961 95.502L79.9961 112.502L81.4961 88.502L58.9961 82.502Z" fill="url(#paint13_linear)" style="mix-blend-mode:multiply"/>
<path d="M133.996 31.0032L113.496 19.0021L113.496 70.0031L133.996 59.5031L133.996 31.0032Z" fill="url(#paint14_linear)" style="mix-blend-mode:multiply"/>
<path d="M264.996 95.5L287.496 82.502L287.495 49.0003L265 51.9987L264.996 95.5Z" fill="url(#paint15_linear)" style="mix-blend-mode:multiply"/>
<path d="M206.996 26.5014L183.74 29.7412L189.503 49.491L196.003 66.4911L217.503 59.491L206.996 26.5014Z" fill="url(#paint16_linear)" style="mix-blend-mode:multiply"/>
<path d="M229.996 90.5026L254.182 91.5933L250.496 71.5066L245.496 50.0066L223.496 56.0066L229.996 90.5026Z" fill="url(#paint17_linear)" style="mix-blend-mode:multiply"/>
<path d="M936.5 302.002L983.988 307.236L975.5 265.002L967 234.502L924.5 244.002L936.5 302.002Z" fill="url(#paint18_linear)" style="mix-blend-mode:multiply"/>
<path d="M1035.19 89.6514C1035.19 90.1759 1034.99 90.6789 1034.62 91.0498C1034.25 91.4206 1033.74 91.6289 1033.22 91.6289L941.614 91.6289C941.099 91.6159 940.61 91.4018 940.251 91.0322C939.892 90.6627 939.69 90.167 939.69 89.6509C939.69 89.1347 939.892 88.639 940.251 88.2695C940.61 87.8999 941.099 87.6858 941.614 87.6727L1033.22 87.6727C1033.74 87.6731 1034.25 87.8817 1034.62 88.2527C1034.99 88.6238 1035.19 89.1269 1035.19 89.6514Z" fill="#0A5656"/>
<path d="M981.98 89.4783C981.981 89.7381 981.93 89.9954 981.831 90.2355C981.732 90.4755 981.587 90.6936 981.403 90.8774C981.22 91.0612 981.003 91.2069 980.763 91.3064C980.524 91.4059 980.267 91.457 980.009 91.457L976.876 91.457C976.536 91.457 968.193 91.4482 958.469 86.8013C952.803 84.1069 947.738 80.2924 943.58 75.587C938.393 69.7235 934.519 62.3982 932.066 53.8152C931.987 53.5639 931.96 53.2992 931.985 53.0368C932.011 52.7743 932.088 52.5193 932.213 52.2878C932.338 52.0556 932.508 51.8507 932.713 51.6855C932.918 51.5204 933.154 51.398 933.406 51.325C933.659 51.2528 933.924 51.2314 934.185 51.2631C934.446 51.2941 934.698 51.3774 934.927 51.5079C935.155 51.6383 935.356 51.8138 935.516 52.0224C935.676 52.2318 935.793 52.4706 935.859 52.7257C938.138 60.6953 941.704 67.4751 946.457 72.8771C950.242 77.1807 954.852 80.6757 960.013 83.1544C968.944 87.4655 976.79 87.5046 976.868 87.5046L980.009 87.5046C980.53 87.5046 981.032 87.7124 981.402 88.0825C981.772 88.4525 981.98 88.9545 981.98 89.4783Z" fill="#0A5656"/>
<path d="M1047 89.3212C1047 90.7948 1046.56 92.2352 1045.75 93.4603C1044.93 94.6855 1043.77 95.6405 1042.41 96.2044C1041.05 96.7683 1039.56 96.9158 1038.12 96.6284C1036.68 96.3409 1035.35 95.6313 1034.31 94.5893C1033.27 93.5474 1032.57 92.2199 1032.28 90.7747C1031.99 89.3295 1032.14 87.8315 1032.7 86.4701C1033.26 85.1088 1034.22 83.9452 1035.44 83.1266C1036.66 82.3079 1038.1 81.871 1039.57 81.871C1041.54 81.874 1043.43 82.6599 1044.82 84.0564C1046.21 85.453 1047 87.3462 1047 89.3212ZM1036.08 89.3212C1036.08 90.013 1036.28 90.6892 1036.67 91.2644C1037.05 91.8394 1037.59 92.2876 1038.23 92.5521C1038.87 92.8166 1039.57 92.8856 1040.25 92.7502C1040.92 92.6149 1041.55 92.2814 1042.03 91.7919C1042.52 91.3024 1042.85 90.6789 1042.99 90.0003C1043.12 89.3217 1043.05 88.6185 1042.79 87.9797C1042.52 87.3408 1042.07 86.7951 1041.5 86.4115C1040.93 86.0279 1040.25 85.8236 1039.56 85.8247C1038.64 85.827 1037.75 86.1963 1037.1 86.8517C1036.45 87.5071 1036.08 88.3951 1036.08 89.3212Z" fill="#0A5656"/>
<path d="M967.4 53.2706C967.4 54.7435 966.965 56.1839 966.148 57.4091C965.331 58.6343 964.171 59.5897 962.813 60.1536C961.454 60.7176 959.96 60.865 958.519 60.5775C957.077 60.29 955.753 59.5801 954.714 58.5385C953.674 57.4961 952.966 56.1692 952.68 54.7236C952.393 53.2787 952.54 51.7808 953.103 50.4192C953.665 49.0577 954.618 47.8944 955.84 47.0754C957.062 46.2571 958.499 45.82 959.969 45.82C961.939 45.8229 963.827 46.6088 965.221 48.005C966.614 49.4019 967.397 51.295 967.4 53.2706ZM956.48 53.2706C956.479 53.9621 956.683 54.6381 957.067 55.2131C957.45 55.7888 957.995 56.237 958.632 56.5017C959.269 56.7663 959.971 56.8356 960.648 56.7007C961.324 56.5658 961.946 56.2333 962.433 55.7438C962.921 55.2551 963.254 54.6314 963.388 53.9532C963.523 53.275 963.454 52.5718 963.19 51.9326C962.925 51.2942 962.478 50.748 961.904 50.3639C961.33 49.9799 960.656 49.7749 959.966 49.7749C959.042 49.7764 958.155 50.145 957.502 50.8003C956.848 51.4557 956.481 52.344 956.48 53.2706Z" fill="#0A5656"/>
<path d="M1035.19 89.6228C1035.19 90.1474 1034.99 90.6505 1034.62 91.0215C1034.25 91.3926 1033.74 91.6013 1033.22 91.6016L1026.12 91.6016L1026.02 91.5915C1018.06 90.8174 1012.78 87.8032 1008.39 81.5059C1006.65 79.0147 1005.06 76.2982 1003.53 73.6768C1001.17 69.6474 998.95 65.8413 996.223 62.7452C993.988 60.2196 991.464 58.2573 988.719 56.9289C986.02 55.6219 983.243 54.9908 980.465 55.0498L966.068 55.0498C965.805 55.0565 965.542 55.01 965.298 54.9142C965.052 54.8176 964.829 54.6731 964.64 54.4888C964.451 54.3038 964.302 54.0841 964.199 53.8408C964.097 53.5968 964.044 53.3359 964.044 53.072C964.044 52.8073 964.097 52.5464 964.199 52.3031C964.302 52.0598 964.451 51.8394 964.64 51.6551C964.829 51.4708 965.052 51.3263 965.298 51.2298C965.542 51.1332 965.805 51.0868 966.068 51.0934L980.393 51.0934C983.794 51.0241 987.169 51.7878 990.426 53.3668C993.644 54.9245 996.587 57.1979 999.169 60.1238C1002.16 63.5104 1004.59 67.6622 1006.93 71.679C1008.43 74.2378 1009.97 76.8827 1011.62 79.2439C1015.32 84.5377 1019.58 86.9787 1026.31 87.6504L1033.22 87.6504C1033.74 87.6507 1034.24 87.8585 1034.61 88.2282C1034.98 88.5979 1035.19 89.0994 1035.19 89.6228Z" fill="#0A5656"/>
<path d="M967.4 125.856C967.4 127.33 966.965 128.77 966.148 129.996C965.331 131.221 964.171 132.176 962.813 132.74C961.454 133.303 959.96 133.451 958.519 133.163C957.077 132.876 955.753 132.166 954.714 131.125C953.674 130.083 952.966 128.755 952.68 127.31C952.393 125.865 952.54 124.367 953.103 123.005C953.665 121.644 954.618 120.48 955.84 119.662C957.062 118.843 958.499 118.406 959.969 118.406C961.939 118.409 963.827 119.195 965.221 120.592C966.613 121.988 967.397 123.881 967.4 125.856ZM956.48 125.856C956.481 126.548 956.686 127.224 957.07 127.798C957.453 128.373 957.998 128.82 958.635 129.084C959.273 129.348 959.974 129.417 960.651 129.281C961.327 129.146 961.948 128.813 962.436 128.323C962.923 127.834 963.255 127.211 963.389 126.533C963.523 125.854 963.454 125.151 963.189 124.513C962.925 123.874 962.478 123.328 961.904 122.944C961.33 122.561 960.656 122.356 959.966 122.356C959.041 122.357 958.154 122.726 957.5 123.383C956.846 124.039 956.479 124.929 956.48 125.856Z" fill="#0A5656"/>
<path d="M1035.19 89.5059C1035.19 90.0305 1034.99 90.5336 1034.62 90.9047C1034.25 91.2757 1033.74 91.4843 1033.22 91.4847L1026.31 91.4847C1019.58 92.1565 1015.32 94.5973 1011.62 99.8908C1009.97 102.252 1008.43 104.898 1006.94 107.457C1004.59 111.474 1002.16 115.626 999.174 119.013C996.592 121.939 993.649 124.212 990.431 125.77C987.174 127.347 983.798 128.111 980.399 128.043L966.068 128.043C965.805 128.049 965.542 128.003 965.298 127.907C965.052 127.81 964.829 127.666 964.64 127.481C964.451 127.297 964.302 127.077 964.199 126.833C964.097 126.59 964.044 126.329 964.044 126.065C964.044 125.8 964.097 125.539 964.199 125.296C964.302 125.052 964.451 124.832 964.64 124.648C964.829 124.463 965.052 124.319 965.298 124.222C965.542 124.126 965.805 124.08 966.068 124.086L980.456 124.086C983.234 124.146 986.011 123.514 988.71 122.207C991.455 120.879 993.979 118.924 996.214 116.391C998.947 113.295 1001.17 109.489 1003.52 105.46C1005.05 102.833 1006.64 100.117 1008.38 97.6305C1012.78 91.3357 1018.05 88.3189 1026.01 87.5449L1026.11 87.5348L1033.21 87.5348C1033.47 87.5338 1033.73 87.584 1033.97 87.6825C1034.21 87.781 1034.43 87.926 1034.61 88.109C1034.79 88.292 1034.94 88.5096 1035.04 88.7493C1035.14 88.989 1035.19 89.2461 1035.19 89.5059Z" fill="#0A5656"/>
<path d="M981.98 89.6798C981.98 89.9395 981.93 90.1968 981.831 90.4369C981.731 90.6769 981.586 90.8951 981.403 91.0788C981.22 91.2626 981.002 91.4084 980.763 91.5078C980.524 91.6073 980.267 91.6585 980.008 91.6585L976.875 91.6585C976.789 91.6585 968.94 91.6939 960.01 96.0036C954.849 98.4831 950.24 101.978 946.454 106.281C941.7 111.685 938.135 118.464 935.856 126.434C935.703 126.927 935.363 127.341 934.91 127.587C934.455 127.832 933.924 127.89 933.428 127.748C932.932 127.605 932.512 127.274 932.257 126.825C932.001 126.375 931.931 125.844 932.063 125.344C934.516 116.757 938.391 109.433 943.577 103.573C947.736 98.8667 952.802 95.0522 958.468 92.3581C968.192 87.7111 976.535 87.6998 976.885 87.7023L980.008 87.7023C980.531 87.7023 981.032 87.9106 981.403 88.2815C981.773 88.6523 981.98 89.1553 981.98 89.6798Z" fill="#0A5656"/>
<path d="M937.649 53.3897C937.65 52.7063 937.83 52.0348 938.171 51.4428C938.512 50.8509 939.003 50.3599 939.594 50.0186C940.185 49.6765 940.675 49.1849 941.016 48.5929C941.357 48.0009 941.537 47.3294 941.537 46.6453C941.537 45.9619 941.357 45.2904 941.016 44.6984C940.675 44.1064 940.185 43.6147 939.594 43.2727C939.004 42.9299 938.515 42.4382 938.176 41.8455C937.836 41.2536 937.657 40.582 937.658 39.8986C937.659 39.2153 937.479 38.543 937.138 37.951C936.798 37.3591 936.308 36.8666 935.717 36.5246C935.127 36.1825 934.457 36.0027 933.775 36.0019C933.094 36.0019 932.423 36.1818 931.832 36.5231C931.242 36.8652 930.572 37.045 929.89 37.045C929.209 37.045 928.538 36.8652 927.948 36.5231C927.358 36.1811 926.687 36.0005 926.006 35.9997C925.324 35.9997 924.654 36.1796 924.062 36.5209C923.471 36.8622 922.981 37.3539 922.64 37.9459C922.298 38.5378 922.118 39.2101 922.118 39.8935C922.118 40.5776 921.938 41.2484 921.597 41.8404C921.255 42.4323 920.764 42.9233 920.174 43.2653C919.583 43.6074 919.093 44.0991 918.752 44.691C918.412 45.283 918.232 45.9545 918.232 46.6379C918.232 47.3213 918.412 47.9928 918.752 48.5848C919.093 49.1767 919.583 49.6684 920.174 50.0105C920.764 50.3525 921.254 50.845 921.595 51.4369C921.936 52.0296 922.115 52.7012 922.115 53.3845C922.114 54.0686 922.293 54.7402 922.634 55.3322C922.975 55.9249 923.465 56.4165 924.056 56.7586C924.646 57.1006 925.316 57.2813 925.997 57.2813C926.679 57.2813 927.349 57.1021 927.941 56.7601C928.531 56.4188 929.2 56.2382 929.882 56.2382C930.564 56.2382 931.234 56.4188 931.825 56.7601C932.415 57.1014 933.085 57.2805 933.766 57.2805C934.447 57.2805 935.116 57.1006 935.707 56.7593C936.297 56.4173 936.787 55.9263 937.128 55.3351C937.469 54.7439 937.649 54.0731 937.649 53.3897Z" fill="#F36024"/>
<path d="M934.417 50.5815C934.418 50.1827 934.523 49.7913 934.722 49.4456C934.921 49.1006 935.207 48.8138 935.551 48.614C935.896 48.415 936.182 48.1275 936.381 47.7817C936.58 47.4367 936.686 47.0446 936.686 46.6458C936.686 46.2462 936.58 45.854 936.381 45.509C936.182 45.1633 935.896 44.8765 935.551 44.6768C935.207 44.477 934.92 44.1902 934.721 43.8445C934.523 43.4995 934.417 43.1073 934.417 42.7085C934.418 42.3089 934.313 41.9168 934.114 41.571C933.915 41.2253 933.629 40.9385 933.285 40.7388C932.94 40.539 932.549 40.4336 932.15 40.4336C931.752 40.4336 931.362 40.539 931.017 40.738C930.672 40.9378 930.281 41.0425 929.883 41.0425C929.485 41.0425 929.094 40.9378 928.749 40.738C928.405 40.539 928.014 40.4336 927.616 40.4336C927.219 40.4336 926.828 40.5383 926.483 40.738C926.139 40.9371 925.852 41.2238 925.653 41.5688C925.454 41.9138 925.349 42.3053 925.349 42.7041C925.349 43.1036 925.244 43.4951 925.045 43.8408C924.846 44.1865 924.56 44.4733 924.215 44.6731C923.87 44.8729 923.584 45.1596 923.385 45.5046C923.186 45.8503 923.082 46.2425 923.082 46.6413C923.082 47.0401 923.186 47.4316 923.385 47.7773C923.584 48.1223 923.87 48.4098 924.215 48.6089C924.56 48.8086 924.846 49.0961 925.045 49.4419C925.244 49.7876 925.349 50.1798 925.349 50.5786C925.349 50.9781 925.452 51.3703 925.652 51.7161C925.851 52.0618 926.137 52.3486 926.482 52.5483C926.827 52.7481 927.217 52.8535 927.615 52.8535C928.013 52.8535 928.405 52.7481 928.749 52.5491C929.094 52.3493 929.485 52.2446 929.883 52.2446C930.281 52.2446 930.672 52.3493 931.017 52.5491C931.361 52.7481 931.752 52.8535 932.15 52.8535C932.548 52.8535 932.939 52.7488 933.283 52.5491C933.628 52.35 933.915 52.0633 934.114 51.7175C934.313 51.3725 934.417 50.9804 934.417 50.5815Z" fill="#F4F0E1"/>
<path d="M933.619 46.6394C933.619 44.5724 931.948 42.8968 929.886 42.8968C927.824 42.8968 926.152 44.5724 926.152 46.6394C926.152 48.7072 927.824 50.3828 929.886 50.3828C931.948 50.3828 933.619 48.7072 933.619 46.6394Z" fill="#F36024"/>
<path d="M931.359 46.6399C931.359 45.8238 930.7 45.1618 929.886 45.1618C929.072 45.1618 928.412 45.8238 928.412 46.6399C928.412 47.4552 929.072 48.1172 929.886 48.1172C930.7 48.1172 931.359 47.4552 931.359 46.6399Z" fill="#F4F0E1"/>
<path d="M933.933 103.337C933.933 101.932 934.303 100.551 935.005 99.3339C935.706 98.1169 936.716 97.1067 937.93 96.4049C943.257 93.325 943.261 85.6184 937.937 82.5335C936.723 81.8298 935.715 80.8183 935.015 79.6005C934.315 78.3827 933.946 77.0019 933.947 75.5961C933.947 69.4311 927.296 65.575 921.969 68.6505C920.755 69.3537 919.377 69.7238 917.975 69.7238C916.574 69.7238 915.196 69.3537 913.982 68.6505C908.657 65.5647 901.999 69.4083 901.995 75.5792C901.995 76.985 901.625 78.3657 900.923 79.5828C900.222 80.7999 899.212 81.8101 897.998 82.512C892.671 85.5919 892.667 93.2985 897.99 96.3834C899.204 97.0869 900.212 98.0984 900.912 99.3162C901.613 100.534 901.981 101.915 901.981 103.321C901.981 109.486 908.632 113.342 913.959 110.266C915.174 109.563 916.551 109.193 917.954 109.193C919.356 109.193 920.733 109.563 921.948 110.266C927.271 113.352 933.929 109.502 933.933 103.337Z" fill="#F36024"/>
<path d="M927.862 98.0604C927.863 97.1899 928.093 96.3351 928.528 95.5815C928.963 94.8281 929.587 94.2023 930.339 93.767C933.641 91.859 933.643 87.082 930.339 85.1702C929.587 84.7342 928.962 84.1074 928.528 83.3526C928.094 82.5979 927.865 81.7419 927.865 80.8705C927.865 77.0494 923.743 74.6587 920.441 76.5673C919.689 77.0029 918.835 77.2322 917.966 77.2322C917.097 77.2322 916.242 77.0029 915.49 76.5673C912.19 74.655 908.058 77.0405 908.058 80.8604C908.057 81.731 907.827 82.5858 907.392 83.3393C906.957 84.0928 906.332 84.7185 905.58 85.1538C902.278 87.0618 902.276 91.8388 905.58 93.7506C906.334 94.1861 906.959 94.8125 907.395 95.567C907.83 96.3215 908.059 97.1775 908.06 98.0491C908.06 101.87 912.182 104.261 915.484 102.353C916.236 101.917 917.09 101.687 917.959 101.687C918.828 101.687 919.683 101.917 920.435 102.353C923.733 104.267 927.859 101.88 927.862 98.0604Z" fill="#F4F0E1"/>
<path d="M925.639 89.4578C925.639 85.2071 922.201 81.7613 917.961 81.7613C913.721 81.7613 910.284 85.2071 910.284 89.4578C910.284 93.7084 913.721 97.1543 917.961 97.1543C922.201 97.1543 925.639 93.7084 925.639 89.4578Z" fill="#F36024"/>
<path d="M920.994 89.4579C920.994 87.7799 919.637 86.4197 917.964 86.4197C916.289 86.4197 914.933 87.7799 914.933 89.4579C914.933 91.1359 916.289 92.4961 917.964 92.4961C919.637 92.4961 920.994 91.1359 920.994 89.4579Z" fill="#F4F0E1"/>
<path d="M996.115 95.3696C995.963 95.9518 995.974 96.5692 995.843 97.1565C994.37 103.825 990.465 108.574 984.362 111.489C982.907 112.183 981.304 112.616 979.728 112.996C975.673 113.974 971.541 114.603 967.456 116.08C967.382 115.59 967.252 115.186 967.277 114.791C967.348 113.654 967.467 112.518 967.595 111.393C967.929 108.438 968.894 105.729 970.725 103.353C974.697 98.1932 979.998 95.597 986.414 95.1096C988.573 94.9454 990.708 94.708 992.664 93.5942C993.924 92.8795 994.319 91.315 994.44 90.2378C994.451 90.1375 994.493 90.043 994.56 89.9677C994.627 89.8924 994.716 89.8398 994.814 89.8175C994.912 89.795 995.015 89.804 995.107 89.8429C995.2 89.8817 995.279 89.9488 995.332 90.0346C995.885 90.9134 996.448 92.5449 996.115 95.3696Z" fill="#0A5656"/>
<path d="M996.115 84.3116C995.963 83.7294 995.974 83.112 995.843 82.5248C994.37 75.856 990.465 71.1071 984.362 68.1923C982.907 67.4979 981.304 67.0651 979.728 66.6848C975.673 65.7073 971.541 65.0785 967.456 63.6012C967.382 64.0914 967.252 64.4954 967.277 64.8905C967.348 66.0272 967.467 67.1632 967.595 68.2881C967.929 71.2435 968.894 73.9518 970.725 76.3285C974.697 81.4881 979.998 84.0842 986.414 84.5717C988.573 84.7358 990.708 84.9733 992.664 86.087C993.924 86.803 994.319 88.3675 994.44 89.4434C994.451 89.5438 994.493 89.6384 994.559 89.714C994.626 89.7895 994.715 89.8422 994.813 89.8647C994.911 89.8873 995.014 89.8784 995.107 89.8396C995.2 89.8007 995.279 89.7337 995.332 89.648C995.885 88.7666 996.448 87.1364 996.115 84.3116Z" fill="#0A5656"/>
<path d="M937.649 138.874C937.65 138.191 937.83 137.519 938.171 136.928C938.512 136.336 939.003 135.845 939.594 135.503C940.185 135.161 940.675 134.67 941.016 134.077C941.357 133.485 941.537 132.814 941.537 132.13C941.537 131.446 941.357 130.775 941.016 130.183C940.675 129.591 940.185 129.099 939.594 128.757C939.005 128.415 938.516 127.923 938.176 127.332C937.836 126.74 937.658 126.07 937.658 125.387C937.659 124.703 937.479 124.032 937.138 123.439C936.798 122.847 936.308 122.355 935.717 122.013C935.127 121.671 934.457 121.491 933.775 121.491C933.094 121.49 932.423 121.67 931.832 122.012C931.242 122.353 930.572 122.533 929.89 122.533C929.209 122.533 928.538 122.353 927.948 122.012C927.358 121.669 926.687 121.489 926.006 121.488C925.324 121.488 924.654 121.668 924.062 122.009C923.471 122.351 922.981 122.842 922.64 123.434C922.298 124.026 922.118 124.698 922.118 125.382C922.118 126.066 921.938 126.737 921.597 127.329C921.255 127.921 920.764 128.412 920.174 128.753C919.583 129.096 919.093 129.587 918.752 130.179C918.412 130.771 918.232 131.443 918.232 132.126C918.232 132.81 918.412 133.481 918.752 134.073C919.093 134.665 919.583 135.157 920.174 135.499C920.764 135.841 921.254 136.333 921.595 136.925C921.936 137.518 922.115 138.189 922.115 138.873C922.114 139.557 922.293 140.228 922.634 140.821C922.975 141.413 923.465 141.905 924.056 142.247C924.646 142.589 925.316 142.769 925.997 142.77C926.679 142.77 927.349 142.59 927.941 142.248C928.531 141.907 929.2 141.727 929.882 141.727C930.564 141.727 931.234 141.907 931.825 142.248C932.415 142.59 933.085 142.769 933.767 142.769C934.448 142.768 935.118 142.588 935.708 142.246C936.299 141.904 936.788 141.413 937.13 140.821C937.47 140.229 937.649 139.558 937.649 138.874Z" fill="#F36024"/>
<path d="M934.417 136.065C934.417 135.666 934.521 135.274 934.72 134.929C934.92 134.583 935.206 134.296 935.551 134.097C935.895 133.897 936.181 133.61 936.38 133.265C936.579 132.919 936.684 132.528 936.684 132.129C936.684 131.73 936.579 131.338 936.38 130.993C936.181 130.647 935.895 130.36 935.551 130.161C935.206 129.961 934.92 129.674 934.72 129.328C934.521 128.982 934.417 128.59 934.417 128.191C934.417 127.792 934.312 127.399 934.114 127.054C933.915 126.708 933.629 126.421 933.284 126.221C932.939 126.022 932.548 125.916 932.15 125.916C931.752 125.916 931.36 126.021 931.016 126.221C930.671 126.42 930.28 126.525 929.882 126.525C929.484 126.525 929.093 126.42 928.749 126.221C928.404 126.021 928.013 125.916 927.615 125.916C927.218 125.916 926.826 126.021 926.482 126.221C926.137 126.42 925.851 126.707 925.652 127.052C925.453 127.398 925.348 127.789 925.347 128.188C925.347 128.587 925.243 128.979 925.044 129.324C924.845 129.669 924.559 129.956 924.214 130.156C923.869 130.355 923.583 130.642 923.384 130.988C923.185 131.333 923.08 131.725 923.08 132.124C923.08 132.523 923.185 132.915 923.384 133.261C923.583 133.606 923.869 133.893 924.214 134.093C924.559 134.292 924.845 134.579 925.044 134.925C925.243 135.27 925.348 135.662 925.347 136.062C925.347 136.461 925.452 136.853 925.651 137.198C925.85 137.544 926.136 137.831 926.48 138.031C926.825 138.231 927.217 138.336 927.615 138.336C928.013 138.336 928.404 138.231 928.749 138.031C929.093 137.832 929.484 137.727 929.882 137.727C930.28 137.727 930.671 137.832 931.016 138.031C931.36 138.231 931.751 138.336 932.149 138.336C932.547 138.336 932.937 138.231 933.282 138.032C933.627 137.833 933.913 137.546 934.112 137.201C934.311 136.856 934.416 136.464 934.417 136.065Z" fill="#F4F0E1"/>
<path d="M933.619 132.126C933.619 130.059 931.948 128.383 929.886 128.383C927.824 128.383 926.152 130.059 926.152 132.126C926.152 134.193 927.824 135.869 929.886 135.869C931.948 135.869 933.619 134.193 933.619 132.126Z" fill="#F36024"/>
<path d="M931.359 132.124C931.359 131.308 930.7 130.647 929.886 130.647C929.072 130.647 928.412 131.308 928.412 132.124C928.412 132.94 929.072 133.602 929.886 133.602C930.7 133.602 931.359 132.94 931.359 132.124Z" fill="#F4F0E1"/>
<path d="M45.4941 386.217C45.4941 385.751 45.6789 385.303 46.0077 384.974C46.3365 384.644 46.7825 384.459 47.2475 384.459H128.676C129.134 384.471 129.568 384.661 129.888 384.989C130.207 385.318 130.386 385.759 130.386 386.217C130.386 386.676 130.207 387.117 129.888 387.445C129.568 387.774 129.134 387.964 128.676 387.976H47.2475C46.7824 387.975 46.3364 387.79 46.0076 387.46C45.6788 387.13 45.4941 386.683 45.4941 386.217Z" fill="#0A5656"/>
<path d="M92.7949 386.37C92.7943 386.139 92.8395 385.911 92.928 385.697C93.0158 385.484 93.1448 385.29 93.308 385.127C93.4705 384.963 93.6638 384.834 93.8768 384.745C94.0897 384.657 94.3178 384.611 94.5478 384.611H97.3327C97.6347 384.611 105.05 384.619 113.694 388.75C118.73 391.145 123.233 394.536 126.929 398.718C131.539 403.93 134.983 410.442 137.164 418.071C137.233 418.294 137.258 418.529 137.235 418.763C137.212 418.996 137.144 419.223 137.033 419.429C136.921 419.635 136.771 419.817 136.589 419.964C136.406 420.111 136.197 420.219 135.972 420.284C135.747 420.349 135.512 420.368 135.28 420.339C135.048 420.312 134.824 420.238 134.621 420.122C134.418 420.006 134.239 419.85 134.097 419.664C133.955 419.478 133.851 419.266 133.792 419.039C131.766 411.955 128.596 405.929 124.371 401.127C121.007 397.301 116.909 394.195 112.321 391.991C104.383 388.159 97.4087 388.125 97.3392 388.125H94.5478C94.0838 388.125 93.6383 387.94 93.3093 387.611C92.9804 387.282 92.7956 386.836 92.7949 386.37Z" fill="#0A5656"/>
<path d="M35 386.509C35 385.199 35.3875 383.919 36.1133 382.83C36.8392 381.741 37.8709 380.892 39.0779 380.391C40.285 379.89 41.6132 379.758 42.8947 380.014C44.1761 380.27 45.3531 380.9 46.277 381.826C47.2009 382.753 47.83 383.933 48.0849 385.217C48.3398 386.502 48.209 387.833 47.7089 389.043C47.209 390.254 46.3623 391.288 45.276 392.016C44.1896 392.743 42.9124 393.132 41.6059 393.132C39.8548 393.129 38.1761 392.43 36.9378 391.189C35.6995 389.948 35.0027 388.265 35 386.509ZM44.7085 386.509C44.7085 385.894 44.5265 385.293 44.1856 384.782C43.8448 384.271 43.3603 383.872 42.7936 383.637C42.2268 383.402 41.6032 383.341 41.0017 383.461C40.4001 383.581 39.8477 383.878 39.4144 384.313C38.981 384.748 38.686 385.302 38.5669 385.906C38.4478 386.509 38.5098 387.134 38.7452 387.702C38.9805 388.27 39.3786 388.755 39.889 389.096C40.3994 389.437 40.9993 389.618 41.6126 389.617C42.4338 389.615 43.2207 389.287 43.801 388.704C44.3813 388.122 44.7076 387.332 44.7085 386.509Z" fill="#0A5656"/>
<path d="M105.756 418.554C105.756 417.245 106.143 415.964 106.869 414.875C107.595 413.786 108.627 412.937 109.834 412.436C111.041 411.934 112.369 411.803 113.651 412.059C114.932 412.314 116.109 412.946 117.033 413.871C117.957 414.798 118.586 415.977 118.841 417.262C119.096 418.547 118.965 419.878 118.465 421.089C117.965 422.299 117.118 423.333 116.032 424.061C114.945 424.788 113.668 425.177 112.362 425.177C110.611 425.174 108.932 424.476 107.693 423.235C106.455 421.993 105.758 420.31 105.756 418.554ZM115.463 418.554C115.464 417.939 115.282 417.338 114.941 416.827C114.601 416.316 114.116 415.917 113.55 415.682C112.983 415.447 112.36 415.385 111.758 415.505C111.157 415.625 110.604 415.92 110.171 416.356C109.737 416.79 109.442 417.344 109.322 417.947C109.203 418.55 109.264 419.175 109.499 419.743C109.734 420.311 110.131 420.796 110.642 421.138C111.151 421.479 111.751 421.661 112.364 421.661C113.186 421.66 113.974 421.332 114.554 420.75C115.135 420.167 115.462 419.378 115.463 418.554Z" fill="#0A5656"/>
<path d="M45.4941 386.241C45.4941 385.775 45.6789 385.328 46.0076 384.998C46.3364 384.668 46.7824 384.483 47.2475 384.482H53.56L53.6452 384.491C60.728 385.179 65.416 387.859 69.3202 393.456C70.8654 395.671 72.2761 398.085 73.641 400.416C75.7336 403.997 77.7109 407.38 80.1349 410.133C82.1212 412.378 84.365 414.122 86.8047 415.303C89.2043 416.464 91.6727 417.025 94.1418 416.973H106.939C107.173 416.967 107.406 417.008 107.624 417.094C107.842 417.179 108.041 417.308 108.208 417.472C108.376 417.636 108.509 417.831 108.6 418.048C108.691 418.264 108.738 418.496 108.738 418.731C108.738 418.966 108.691 419.198 108.6 419.414C108.509 419.631 108.376 419.827 108.208 419.99C108.041 420.154 107.842 420.283 107.624 420.369C107.406 420.454 107.173 420.496 106.939 420.49H94.2053C91.1826 420.551 88.1828 419.873 85.2875 418.469C82.4268 417.084 79.8113 415.064 77.516 412.463C74.8591 409.452 72.7016 405.762 70.6156 402.191C69.2866 399.917 67.9129 397.566 66.4472 395.467C63.1633 390.761 59.3767 388.592 53.3899 387.995H47.2475C46.7833 387.994 46.3382 387.81 46.0096 387.481C45.681 387.152 45.4956 386.707 45.4941 386.241Z" fill="#0A5656"/>
<path d="M105.756 354.035C105.756 352.725 106.143 351.444 106.869 350.355C107.595 349.266 108.627 348.417 109.834 347.916C111.041 347.415 112.369 347.284 113.651 347.539C114.932 347.795 116.109 348.426 117.033 349.352C117.957 350.278 118.586 351.458 118.841 352.743C119.096 354.027 118.965 355.359 118.465 356.569C117.965 357.779 117.118 358.813 116.032 359.541C114.945 360.269 113.668 360.657 112.362 360.657C110.611 360.654 108.932 359.956 107.693 358.714C106.456 357.473 105.758 355.79 105.756 354.035ZM115.463 354.035C115.462 353.42 115.28 352.819 114.939 352.309C114.598 351.798 114.114 351.4 113.547 351.165C112.98 350.931 112.357 350.87 111.755 350.99C111.155 351.11 110.602 351.407 110.169 351.842C109.736 352.277 109.441 352.831 109.322 353.434C109.203 354.036 109.264 354.661 109.499 355.229C109.734 355.797 110.132 356.282 110.642 356.623C111.151 356.964 111.751 357.146 112.364 357.146C113.187 357.145 113.975 356.817 114.556 356.233C115.137 355.65 115.464 354.859 115.463 354.035Z" fill="#0A5656"/>
<path d="M45.4941 386.345C45.4941 385.878 45.6789 385.431 46.0076 385.101C46.3364 384.772 46.7824 384.586 47.2475 384.586H53.3899C59.3767 383.989 63.1633 381.819 66.4472 377.114C67.9129 375.015 69.2866 372.663 70.6112 370.388C72.6971 366.817 74.8547 363.127 77.5116 360.116C79.8068 357.516 82.4224 355.495 85.2831 354.11C88.1782 352.708 91.1793 352.029 94.2008 352.09H106.939C107.173 352.084 107.406 352.125 107.624 352.211C107.842 352.296 108.041 352.425 108.208 352.589C108.376 352.753 108.509 352.948 108.6 353.165C108.691 353.381 108.738 353.613 108.738 353.848C108.738 354.083 108.691 354.315 108.6 354.531C108.509 354.748 108.376 354.943 108.208 355.107C108.041 355.271 107.842 355.4 107.624 355.485C107.406 355.571 107.173 355.612 106.939 355.606H94.1496C91.6806 355.554 89.2122 356.115 86.8126 357.277C84.3728 358.457 82.129 360.195 80.1427 362.447C77.7131 365.199 75.7358 368.582 73.6488 372.164C72.284 374.498 70.8732 376.913 69.328 379.123C65.4216 384.718 60.7337 387.4 53.653 388.088L53.5679 388.097H47.2554C47.0249 388.098 46.7966 388.053 46.5834 387.966C46.3702 387.878 46.1763 387.749 46.0128 387.586C45.8492 387.424 45.7192 387.23 45.6302 387.017C45.5413 386.804 45.495 386.576 45.4941 386.345Z" fill="#0A5656"/>
<path d="M92.7949 386.191C92.7949 385.961 92.8401 385.732 92.9279 385.518C93.0164 385.305 93.1455 385.111 93.308 384.948C93.4712 384.784 93.6645 384.655 93.8774 384.566C94.0897 384.478 94.3184 384.433 94.5484 384.433H97.3333C97.4093 384.433 104.387 384.401 112.324 380.57C116.911 378.366 121.009 375.259 124.374 371.435C128.599 366.632 131.769 360.605 133.794 353.521C133.931 353.083 134.233 352.715 134.636 352.496C135.039 352.278 135.512 352.227 135.953 352.353C136.393 352.48 136.767 352.774 136.994 353.174C137.221 353.573 137.283 354.046 137.166 354.49C134.986 362.123 131.542 368.633 126.932 373.842C123.235 378.025 118.732 381.416 113.695 383.811C105.051 387.941 97.6354 387.951 97.3241 387.949H94.5484C94.0832 387.949 93.6376 387.764 93.3087 387.434C92.9797 387.105 92.7949 386.658 92.7949 386.191Z" fill="#0A5656"/>
<path d="M132.2 418.449C132.199 419.057 132.039 419.654 131.736 420.18C131.433 420.706 130.996 421.143 130.471 421.446C129.946 421.75 129.51 422.187 129.207 422.713C128.904 423.239 128.744 423.836 128.744 424.444C128.744 425.052 128.904 425.649 129.207 426.175C129.51 426.701 129.946 427.138 130.471 427.442C130.996 427.747 131.43 428.184 131.732 428.711C132.034 429.237 132.193 429.834 132.192 430.441C132.192 431.049 132.351 431.647 132.654 432.173C132.957 432.699 133.393 433.137 133.917 433.441C134.442 433.745 135.037 433.905 135.643 433.905C136.25 433.905 136.845 433.745 137.371 433.442C137.896 433.138 138.491 432.978 139.097 432.978C139.703 432.978 140.298 433.138 140.823 433.442C141.348 433.746 141.944 433.907 142.55 433.907C143.156 433.907 143.752 433.747 144.277 433.444C144.803 433.141 145.239 432.703 145.542 432.177C145.845 431.651 146.005 431.054 146.005 430.446C146.006 429.838 146.166 429.242 146.469 428.715C146.773 428.189 147.209 427.753 147.734 427.449C148.259 427.145 148.694 426.708 148.997 426.182C149.3 425.655 149.46 425.058 149.46 424.451C149.46 423.844 149.3 423.247 148.997 422.72C148.694 422.194 148.259 421.757 147.734 421.453C147.209 421.149 146.773 420.711 146.47 420.185C146.167 419.658 146.008 419.061 146.009 418.454C146.009 417.846 145.85 417.249 145.547 416.723C145.244 416.196 144.808 415.759 144.283 415.455C143.758 415.151 143.163 414.99 142.557 414.99C141.951 414.99 141.355 415.149 140.83 415.454C140.305 415.757 139.71 415.917 139.104 415.917C138.498 415.917 137.902 415.757 137.377 415.454C136.852 415.15 136.257 414.991 135.652 414.991C135.047 414.991 134.452 415.151 133.927 415.454C133.402 415.758 132.967 416.195 132.663 416.72C132.361 417.246 132.201 417.842 132.2 418.449Z" fill="#F36024"/>
<path d="M135.073 420.945C135.072 421.3 134.979 421.648 134.802 421.955C134.625 422.262 134.371 422.517 134.065 422.694C133.758 422.871 133.504 423.127 133.327 423.434C133.15 423.741 133.057 424.089 133.057 424.444C133.057 424.799 133.15 425.148 133.327 425.454C133.504 425.762 133.758 426.016 134.065 426.194C134.371 426.372 134.626 426.627 134.803 426.934C134.979 427.24 135.073 427.589 135.073 427.944C135.072 428.299 135.165 428.647 135.342 428.955C135.519 429.262 135.773 429.517 136.079 429.694C136.386 429.872 136.734 429.966 137.088 429.966C137.442 429.966 137.789 429.872 138.096 429.695C138.402 429.518 138.75 429.425 139.103 429.425C139.457 429.425 139.805 429.518 140.111 429.695C140.417 429.872 140.765 429.966 141.118 429.966C141.472 429.966 141.819 429.873 142.126 429.695C142.432 429.518 142.686 429.263 142.863 428.957C143.04 428.65 143.133 428.302 143.134 427.948C143.134 427.592 143.227 427.244 143.404 426.937C143.581 426.63 143.835 426.375 144.142 426.197C144.448 426.02 144.702 425.765 144.879 425.458C145.056 425.151 145.149 424.802 145.149 424.448C145.149 424.093 145.056 423.745 144.879 423.438C144.702 423.131 144.448 422.876 144.142 422.699C143.835 422.521 143.581 422.266 143.404 421.958C143.227 421.651 143.134 421.302 143.134 420.948C143.134 420.593 143.042 420.244 142.865 419.937C142.688 419.63 142.434 419.375 142.127 419.197C141.82 419.019 141.473 418.926 141.119 418.926C140.765 418.926 140.417 419.019 140.111 419.196C139.805 419.374 139.457 419.467 139.103 419.467C138.75 419.467 138.402 419.374 138.096 419.196C137.79 419.019 137.442 418.926 137.089 418.926C136.735 418.926 136.387 419.019 136.081 419.196C135.774 419.373 135.52 419.628 135.343 419.936C135.166 420.242 135.073 420.591 135.073 420.945Z" fill="#F4F0E1"/>
<path d="M135.783 424.449C135.783 426.286 137.269 427.775 139.101 427.775C140.934 427.775 142.42 426.286 142.42 424.449C142.42 422.611 140.934 421.121 139.101 421.121C137.269 421.121 135.783 422.611 135.783 424.449Z" fill="#F36024"/>
<path d="M137.791 424.448C137.791 425.173 138.377 425.762 139.101 425.762C139.824 425.762 140.411 425.173 140.411 424.448C140.411 423.723 139.824 423.135 139.101 423.135C138.377 423.135 137.791 423.723 137.791 424.448Z" fill="#F4F0E1"/>
<path d="M135.505 374.051C135.505 375.301 135.176 376.528 134.552 377.61C133.929 378.692 133.032 379.59 131.952 380.213C127.217 382.951 127.213 389.802 131.946 392.544C133.025 393.169 133.921 394.068 134.543 395.151C135.166 396.233 135.493 397.461 135.493 398.71C135.493 404.19 141.405 407.618 146.14 404.884C147.219 404.259 148.443 403.93 149.69 403.93C150.935 403.93 152.16 404.259 153.239 404.884C157.972 407.627 163.891 404.211 163.894 398.725C163.895 397.476 164.223 396.248 164.847 395.167C165.471 394.085 166.368 393.187 167.448 392.563C172.183 389.825 172.186 382.975 167.454 380.233C166.375 379.607 165.479 378.708 164.857 377.626C164.234 376.543 163.906 375.315 163.907 374.066C163.907 368.586 157.995 365.158 153.26 367.892C152.18 368.517 150.956 368.846 149.709 368.846C148.462 368.846 147.238 368.517 146.159 367.892C141.427 365.149 135.508 368.571 135.505 374.051Z" fill="#F36024"/>
<path d="M140.9 378.741C140.899 379.515 140.695 380.275 140.308 380.945C139.921 381.614 139.366 382.171 138.698 382.558C135.763 384.254 135.761 388.5 138.698 390.199C139.367 390.587 139.922 391.144 140.308 391.815C140.694 392.486 140.897 393.247 140.897 394.021C140.897 397.418 144.561 399.543 147.496 397.846C148.165 397.459 148.924 397.255 149.697 397.255C150.469 397.255 151.229 397.459 151.898 397.846C154.831 399.546 158.504 397.426 158.504 394.03C158.505 393.256 158.709 392.497 159.095 391.827C159.482 391.157 160.038 390.601 160.706 390.214C163.642 388.518 163.643 384.272 160.706 382.572C160.036 382.185 159.481 381.628 159.093 380.958C158.707 380.287 158.503 379.526 158.502 378.751C158.502 375.355 154.838 373.23 151.903 374.926C151.234 375.313 150.475 375.517 149.703 375.517C148.93 375.517 148.171 375.313 147.502 374.926C144.571 373.224 140.902 375.346 140.9 378.741Z" fill="#F4F0E1"/>
<path d="M142.877 386.388C142.877 390.167 145.932 393.23 149.702 393.23C153.47 393.23 156.526 390.167 156.526 386.388C156.526 382.61 153.47 379.547 149.702 379.547C145.932 379.547 142.877 382.61 142.877 386.388Z" fill="#F36024"/>
<path d="M147.006 386.388C147.006 387.88 148.212 389.089 149.7 389.089C151.188 389.089 152.393 387.88 152.393 386.388C152.393 384.897 151.188 383.688 149.7 383.688C148.212 383.688 147.006 384.897 147.006 386.388Z" fill="#F4F0E1"/>
<path d="M80.2309 381.134C80.3664 380.616 80.3564 380.068 80.4728 379.546C81.7828 373.618 85.2536 369.396 90.6787 366.806C91.9715 366.188 93.3967 365.803 94.7977 365.466C98.4017 364.597 102.075 364.038 105.706 362.725C105.772 363.16 105.887 363.519 105.865 363.871C105.802 364.881 105.696 365.891 105.583 366.891C105.285 369.518 104.428 371.925 102.801 374.038C99.2693 378.624 94.5579 380.932 88.8544 381.365C86.9351 381.511 85.0376 381.722 83.2988 382.712C82.1791 383.347 81.8276 384.738 81.72 385.696C81.7104 385.785 81.6732 385.869 81.6137 385.936C81.5541 386.003 81.4752 386.049 81.388 386.069C81.3007 386.089 81.2095 386.081 81.1269 386.047C81.0443 386.012 80.9745 385.953 80.9274 385.876C80.4358 385.095 79.9354 383.645 80.2309 381.134Z" fill="#0A5656"/>
<path d="M80.2309 390.963C80.3664 391.48 80.3564 392.029 80.4728 392.551C81.7828 398.479 85.2536 402.7 90.6787 405.291C91.9715 405.908 93.3967 406.293 94.7977 406.631C98.4017 407.5 102.075 408.059 105.706 409.372C105.772 408.936 105.887 408.577 105.865 408.226C105.802 407.215 105.696 406.206 105.583 405.206C105.285 402.579 104.428 400.171 102.801 398.059C99.2693 393.472 94.5579 391.165 88.8544 390.731C86.9351 390.586 85.0376 390.374 83.2988 389.384C82.1791 388.748 81.8276 387.357 81.72 386.401C81.7106 386.312 81.6735 386.228 81.6141 386.16C81.5546 386.093 81.4758 386.047 81.3884 386.026C81.3011 386.006 81.2098 386.014 81.1271 386.049C81.0445 386.083 80.9746 386.143 80.9274 386.219C80.4358 387.003 79.9354 388.452 80.2309 390.963Z" fill="#0A5656"/>
<path d="M132.2 342.462C132.199 343.07 132.039 343.667 131.736 344.193C131.433 344.719 130.996 345.156 130.471 345.459C129.946 345.763 129.51 346.2 129.207 346.726C128.904 347.253 128.744 347.85 128.744 348.457C128.744 349.065 128.904 349.662 129.207 350.188C129.51 350.715 129.946 351.152 130.471 351.455C130.995 351.76 131.429 352.197 131.732 352.722C132.034 353.248 132.192 353.844 132.192 354.451C132.192 355.059 132.351 355.656 132.654 356.182C132.957 356.709 133.393 357.146 133.917 357.45C134.442 357.754 135.037 357.914 135.643 357.915C136.25 357.915 136.845 357.755 137.371 357.452C137.896 357.148 138.491 356.988 139.097 356.988C139.703 356.988 140.298 357.148 140.823 357.452C141.348 357.756 141.944 357.916 142.55 357.917C143.156 357.917 143.752 357.757 144.277 357.454C144.803 357.15 145.239 356.713 145.542 356.187C145.845 355.661 146.005 355.064 146.005 354.456C146.006 353.848 146.166 353.251 146.469 352.725C146.773 352.199 147.209 351.762 147.734 351.459C148.259 351.155 148.694 350.718 148.997 350.191C149.3 349.665 149.46 349.068 149.46 348.461C149.46 347.853 149.3 347.256 148.997 346.73C148.694 346.204 148.259 345.767 147.734 345.463C147.209 345.159 146.773 344.721 146.47 344.195C146.167 343.668 146.008 343.071 146.009 342.463C146.009 341.856 145.85 341.259 145.547 340.732C145.244 340.206 144.808 339.769 144.283 339.465C143.758 339.16 143.163 339 142.557 339C141.951 339 141.355 339.159 140.83 339.463C140.305 339.767 139.71 339.927 139.104 339.927C138.498 339.927 137.902 339.767 137.377 339.463C136.852 339.16 136.257 339 135.651 339.001C135.045 339.001 134.45 339.161 133.925 339.465C133.4 339.769 132.965 340.206 132.662 340.732C132.359 341.258 132.2 341.855 132.2 342.462Z" fill="#F36024"/>
<path d="M135.074 344.962C135.074 345.316 134.981 345.665 134.804 345.972C134.627 346.279 134.372 346.534 134.066 346.712C133.76 346.889 133.505 347.144 133.329 347.451C133.152 347.758 133.059 348.106 133.059 348.461C133.059 348.815 133.152 349.164 133.329 349.471C133.505 349.778 133.76 350.033 134.066 350.21C134.372 350.388 134.627 350.643 134.804 350.95C134.981 351.258 135.074 351.606 135.074 351.961C135.074 352.316 135.167 352.665 135.343 352.972C135.52 353.279 135.774 353.535 136.081 353.712C136.387 353.889 136.735 353.983 137.089 353.983C137.442 353.983 137.79 353.89 138.096 353.712C138.403 353.535 138.75 353.442 139.104 353.442C139.458 353.442 139.806 353.535 140.112 353.712C140.419 353.89 140.766 353.983 141.12 353.983C141.473 353.983 141.821 353.89 142.127 353.713C142.434 353.535 142.688 353.28 142.865 352.973C143.042 352.666 143.135 352.318 143.135 351.964C143.135 351.609 143.228 351.261 143.405 350.954C143.582 350.647 143.836 350.392 144.142 350.215C144.449 350.037 144.703 349.782 144.88 349.475C145.057 349.168 145.151 348.82 145.151 348.465C145.151 348.11 145.057 347.762 144.88 347.455C144.703 347.147 144.449 346.892 144.142 346.715C143.836 346.538 143.582 346.283 143.405 345.975C143.228 345.668 143.135 345.32 143.135 344.965C143.135 344.61 143.042 344.262 142.865 343.954C142.688 343.647 142.434 343.392 142.128 343.214C141.822 343.037 141.474 342.943 141.12 342.943C140.766 342.943 140.419 343.037 140.112 343.214C139.806 343.391 139.458 343.485 139.104 343.485C138.75 343.485 138.403 343.391 138.096 343.214C137.79 343.037 137.443 342.943 137.089 342.943C136.736 342.943 136.389 343.036 136.082 343.214C135.776 343.391 135.521 343.645 135.344 343.952C135.167 344.259 135.074 344.607 135.074 344.962Z" fill="#F4F0E1"/>
<path d="M135.783 348.46C135.783 350.297 137.269 351.787 139.101 351.787C140.934 351.787 142.42 350.297 142.42 348.46C142.42 346.622 140.934 345.133 139.101 345.133C137.269 345.133 135.783 346.622 135.783 348.46Z" fill="#F36024"/>
<path d="M137.791 348.462C137.791 349.187 138.377 349.775 139.101 349.775C139.824 349.775 140.411 349.187 140.411 348.462C140.411 347.736 139.824 347.148 139.101 347.148C138.377 347.148 137.791 347.736 137.791 348.462Z" fill="#F4F0E1"/>
<path d="M1084 307.002L1048 346.502C1040 340.902 1017 329.835 1006.5 325.002V239.502H1050V294.502C1063.6 303.302 1078.33 306.502 1084 307.002Z" fill="url(#paint19_linear)"/>
<defs>
<linearGradient id="paint0_linear" x1="174.5" y1="279.502" x2="248.5" y2="220.502" gradientUnits="userSpaceOnUse">
<stop/>
<stop offset="1" stop-color="#C4C4C4" stop-opacity="0"/>
</linearGradient>
<linearGradient id="paint1_linear" x1="139.5" y1="321.002" x2="322.5" y2="304.002" gradientUnits="userSpaceOnUse">
<stop/>
<stop offset="1" stop-color="#C4C4C4" stop-opacity="0"/>
</linearGradient>
<linearGradient id="paint2_linear" x1="17.3196" y1="311.01" x2="66.4451" y2="251.059" gradientUnits="userSpaceOnUse">
<stop/>
<stop offset="1" stop-color="#C4C4C4" stop-opacity="0"/>
</linearGradient>
<linearGradient id="paint3_linear" x1="545" y1="82.502" x2="568.886" y2="182.788" gradientUnits="userSpaceOnUse">
<stop/>
<stop offset="1" stop-color="#C4C4C4" stop-opacity="0"/>
</linearGradient>
<linearGradient id="paint4_linear" x1="628" y1="236.5" x2="651.886" y2="336.786" gradientUnits="userSpaceOnUse">
<stop/>
<stop offset="1" stop-color="#C4C4C4" stop-opacity="0"/>
</linearGradient>
<linearGradient id="paint5_linear" x1="790.5" y1="143.502" x2="818.397" y2="287.076" gradientUnits="userSpaceOnUse">
<stop/>
<stop offset="1" stop-color="#C4C4C4" stop-opacity="0"/>
</linearGradient>
<linearGradient id="paint6_linear" x1="671.5" y1="203.002" x2="779.141" y2="114.471" gradientUnits="userSpaceOnUse">
<stop/>
<stop offset="1" stop-color="#C4C4C4" stop-opacity="0"/>
</linearGradient>
<linearGradient id="paint7_linear" x1="655.5" y1="403.998" x2="631.614" y2="303.712" gradientUnits="userSpaceOnUse">
<stop/>
<stop offset="1" stop-color="#C4C4C4" stop-opacity="0"/>
</linearGradient>
<linearGradient id="paint8_linear" x1="593.5" y1="148.502" x2="668.603" y2="102.082" gradientUnits="userSpaceOnUse">
<stop/>
<stop offset="1" stop-color="#C4C4C4" stop-opacity="0"/>
</linearGradient>
<linearGradient id="paint9_linear" x1="615" y1="277.502" x2="582.514" y2="231.467" gradientUnits="userSpaceOnUse">
<stop/>
<stop offset="1" stop-color="#C4C4C4" stop-opacity="0"/>
</linearGradient>
<linearGradient id="paint10_linear" x1="162" y1="152.002" x2="175.748" y2="254.132" gradientUnits="userSpaceOnUse">
<stop/>
<stop offset="1" stop-color="#C4C4C4" stop-opacity="0"/>
</linearGradient>
<linearGradient id="paint11_linear" x1="380" y1="265.502" x2="426" y2="324.002" gradientUnits="userSpaceOnUse">
<stop/>
<stop offset="1" stop-color="#C4C4C4" stop-opacity="0"/>
</linearGradient>
<linearGradient id="paint12_linear" x1="856.5" y1="136.002" x2="908.633" y2="256.191" gradientUnits="userSpaceOnUse">
<stop/>
<stop offset="1" stop-color="#C4C4C4" stop-opacity="0"/>
</linearGradient>
<linearGradient id="paint13_linear" x1="46.9961" y1="67.502" x2="80.9961" y2="101.502" gradientUnits="userSpaceOnUse">
<stop stop-color="#C9420B"/>
<stop offset="1" stop-color="#C4C4C4" stop-opacity="0"/>
</linearGradient>
<linearGradient id="paint14_linear" x1="143.875" y1="19.8447" x2="122.126" y2="62.7281" gradientUnits="userSpaceOnUse">
<stop stop-color="#C9420B"/>
<stop offset="1" stop-color="#C4C4C4" stop-opacity="0"/>
</linearGradient>
<linearGradient id="paint15_linear" x1="254.695" y1="107.63" x2="274.251" y2="63.7031" gradientUnits="userSpaceOnUse">
<stop stop-color="#C9420B"/>
<stop offset="1" stop-color="#C4C4C4" stop-opacity="0"/>
</linearGradient>
<linearGradient id="paint16_linear" x1="194.496" y1="-21.498" x2="215.996" y2="50.002" gradientUnits="userSpaceOnUse">
<stop stop-color="#C9420B"/>
<stop offset="1" stop-color="#C4C4C4" stop-opacity="0"/>
</linearGradient>
<linearGradient id="paint17_linear" x1="242.729" y1="142.677" x2="222.205" y2="70.8902" gradientUnits="userSpaceOnUse">
<stop stop-color="#C9420B"/>
<stop offset="1" stop-color="#C4C4C4" stop-opacity="0"/>
</linearGradient>
<linearGradient id="paint18_linear" x1="963" y1="376.002" x2="912.106" y2="238.1" gradientUnits="userSpaceOnUse">
<stop/>
<stop offset="1" stop-color="#C4C4C4" stop-opacity="0"/>
</linearGradient>
<linearGradient id="paint19_linear" x1="1086.5" y1="476.502" x2="1023.5" y2="244.502" gradientUnits="userSpaceOnUse">
<stop/>
<stop offset="1" stop-opacity="0"/>
</linearGradient>
</defs>
</svg>
