<svg width="292" height="45" viewBox="0 0 292 45" fill="none" xmlns="http://www.w3.org/2000/svg">
<path d="M27.1 45L22.6 38.95C21.2667 39.2167 19.9667 39.35 18.7 39.35C15.4 39.35 12.3667 38.5833 9.6 37.05C6.86667 35.5167 4.68333 33.3833 3.05 30.65C1.45 27.8833 0.65 24.7833 0.65 21.35C0.65 17.9167 1.45 14.8333 3.05 12.1C4.68333 9.36667 6.86667 7.23333 9.6 5.7C12.3667 4.16667 15.4 3.4 18.7 3.4C22 3.4 25.0167 4.16667 27.75 5.7C30.5167 7.23333 32.6833 9.36667 34.25 12.1C35.85 14.8333 36.65 17.9167 36.65 21.35C36.65 24.35 36.0333 27.1 34.8 29.6C33.6 32.0667 31.9167 34.1167 29.75 35.75L37.45 45H27.1ZM9.4 21.35C9.4 24.45 10.2333 26.9333 11.9 28.8C13.6 30.6333 15.8667 31.55 18.7 31.55C21.5 31.55 23.7333 30.6167 25.4 28.75C27.1 26.8833 27.95 24.4167 27.95 21.35C27.95 18.25 27.1 15.7833 25.4 13.95C23.7333 12.0833 21.5 11.15 18.7 11.15C15.8667 11.15 13.6 12.0667 11.9 13.9C10.2333 15.7333 9.4 18.2167 9.4 21.35ZM67.1043 11.45V39H61.4043V35.75C60.5043 36.8833 59.321 37.7833 57.8543 38.45C56.421 39.0833 54.8876 39.4 53.2543 39.4C51.0876 39.4 49.1376 38.95 47.4043 38.05C45.7043 37.15 44.3543 35.8167 43.3543 34.05C42.3876 32.2833 41.9043 30.15 41.9043 27.65V11.45H47.5543V26.8C47.5543 29.2667 48.171 31.1667 49.4043 32.5C50.6376 33.8 52.321 34.45 54.4543 34.45C56.5876 34.45 58.271 33.8 59.5043 32.5C60.771 31.1667 61.4043 29.2667 61.4043 26.8V11.45H67.1043ZM77.525 7.8C76.4917 7.8 75.625 7.45 74.925 6.75C74.225 6.05 73.875 5.18333 73.875 4.15C73.875 3.11666 74.225 2.25 74.925 1.55C75.625 0.849998 76.4917 0.499998 77.525 0.499998C78.525 0.499998 79.375 0.849998 80.075 1.55C80.775 2.25 81.125 3.11666 81.125 4.15C81.125 5.18333 80.775 6.05 80.075 6.75C79.375 7.45 78.525 7.8 77.525 7.8ZM80.325 11.45V39H74.625V11.45H80.325ZM85.9086 25.2C85.9086 22.3667 86.4753 19.8833 87.6086 17.75C88.7753 15.5833 90.3753 13.9167 92.4086 12.75C94.4419 11.5833 96.7753 11 99.4086 11C102.742 11 105.492 11.8 107.659 13.4C109.859 14.9667 111.342 17.2167 112.109 20.15H105.959C105.459 18.7833 104.659 17.7167 103.559 16.95C102.459 16.1833 101.075 15.8 99.4086 15.8C97.0753 15.8 95.2086 16.6333 93.8086 18.3C92.4419 19.9333 91.7586 22.2333 91.7586 25.2C91.7586 28.1667 92.4419 30.4833 93.8086 32.15C95.2086 33.8167 97.0753 34.65 99.4086 34.65C102.709 34.65 104.892 33.2 105.959 30.3H112.109C111.309 33.1 109.809 35.3333 107.609 37C105.409 38.6333 102.675 39.45 99.4086 39.45C96.7753 39.45 94.4419 38.8667 92.4086 37.7C90.3753 36.5 88.7753 34.8333 87.6086 32.7C86.4753 30.5333 85.9086 28.0333 85.9086 25.2ZM128.689 25.25L141.389 39H133.689L123.489 27.15V39H117.789V2H123.489V23.5L133.489 11.45H141.389L128.689 25.25ZM166.363 32.4H177.563V39H157.813V3.9H166.363V32.4ZM207.541 24.55C207.541 25.5833 207.474 26.5167 207.341 27.35H186.291C186.458 29.55 187.274 31.3167 188.741 32.65C190.208 33.9833 192.008 34.65 194.141 34.65C197.208 34.65 199.374 33.3667 200.641 30.8H206.791C205.958 33.3333 204.441 35.4167 202.241 37.05C200.074 38.65 197.374 39.45 194.141 39.45C191.508 39.45 189.141 38.8667 187.041 37.7C184.974 36.5 183.341 34.8333 182.141 32.7C180.974 30.5333 180.391 28.0333 180.391 25.2C180.391 22.3667 180.958 19.8833 182.091 17.75C183.258 15.5833 184.874 13.9167 186.941 12.75C189.041 11.5833 191.441 11 194.141 11C196.741 11 199.058 11.5667 201.091 12.7C203.124 13.8333 204.708 15.4333 205.841 17.5C206.974 19.5333 207.541 21.8833 207.541 24.55ZM201.591 22.75C201.558 20.65 200.808 18.9667 199.341 17.7C197.874 16.4333 196.058 15.8 193.891 15.8C191.924 15.8 190.241 16.4333 188.841 17.7C187.441 18.9333 186.608 20.6167 186.341 22.75H201.591ZM211.25 25.1C211.25 22.3333 211.817 19.8833 212.95 17.75C214.117 15.6167 215.684 13.9667 217.65 12.8C219.65 11.6 221.85 11 224.25 11C226.417 11 228.3 11.4333 229.9 12.3C231.534 13.1333 232.834 14.1833 233.8 15.45V11.45H239.55V39H233.8V34.9C232.834 36.2 231.517 37.2833 229.85 38.15C228.184 39.0167 226.284 39.45 224.15 39.45C221.784 39.45 219.617 38.85 217.65 37.65C215.684 36.4167 214.117 34.7167 212.95 32.55C211.817 30.35 211.25 27.8667 211.25 25.1ZM233.8 25.2C233.8 23.3 233.4 21.65 232.6 20.25C231.834 18.85 230.817 17.7833 229.55 17.05C228.284 16.3167 226.917 15.95 225.45 15.95C223.984 15.95 222.617 16.3167 221.35 17.05C220.084 17.75 219.05 18.8 218.25 20.2C217.484 21.5667 217.1 23.2 217.1 25.1C217.1 27 217.484 28.6667 218.25 30.1C219.05 31.5333 220.084 32.6333 221.35 33.4C222.65 34.1333 224.017 34.5 225.45 34.5C226.917 34.5 228.284 34.1333 229.55 33.4C230.817 32.6667 231.834 31.6 232.6 30.2C233.4 28.7667 233.8 27.1 233.8 25.2ZM252.737 15.45C253.57 14.05 254.67 12.9667 256.037 12.2C257.437 11.4 259.087 11 260.987 11V16.9H259.537C257.304 16.9 255.604 17.4667 254.437 18.6C253.304 19.7333 252.737 21.7 252.737 24.5V39H247.037V11.45H252.737V15.45ZM280.127 11C282.293 11 284.227 11.45 285.927 12.35C287.66 13.25 289.01 14.5833 289.977 16.35C290.943 18.1167 291.427 20.25 291.427 22.75V39H285.777V23.6C285.777 21.1333 285.16 19.25 283.927 17.95C282.693 16.6167 281.01 15.95 278.877 15.95C276.743 15.95 275.043 16.6167 273.777 17.95C272.543 19.25 271.927 21.1333 271.927 23.6V39H266.227V11.45H271.927V14.6C272.86 13.4667 274.043 12.5833 275.477 11.95C276.943 11.3167 278.493 11 280.127 11Z" fill="#311C62"/>
</svg>
